<svg xmlns="http://www.w3.org/2000/svg" xmlns:xlink="http://www.w3.org/1999/xlink" width="409.912" height="258.548" viewBox="0 0 409.912 258.548">
  <defs>
    <linearGradient id="linear-gradient" x1="0.5" y1="1.03" x2="0.5" y2="-0.044" gradientUnits="objectBoundingBox">
      <stop offset="0.052" stop-color="#4d4f4f"/>
      <stop offset="1" stop-color="#3f4040"/>
    </linearGradient>
    <linearGradient id="linear-gradient-2" x1="0.406" y1="-0.132" x2="0.554" y2="0.86" gradientUnits="objectBoundingBox">
      <stop offset="0" stop-color="#fff"/>
      <stop offset="0.654" stop-color="#ceefee"/>
      <stop offset="1" stop-color="#bae9e8"/>
    </linearGradient>
    <linearGradient id="linear-gradient-3" x1="0.32" y1="0.294" x2="0.665" y2="0.69" gradientUnits="objectBoundingBox">
      <stop offset="0" stop-color="#008394"/>
      <stop offset="1" stop-color="#00616e"/>
    </linearGradient>
    <linearGradient id="linear-gradient-4" x1="0.174" y1="-0.111" x2="0.726" y2="0.925" gradientUnits="objectBoundingBox">
      <stop offset="0" stop-color="#f0573f"/>
      <stop offset="1" stop-color="#e63f33"/>
    </linearGradient>
    <linearGradient id="linear-gradient-5" x1="-0.248" y1="-0.212" x2="0.985" y2="0.911" gradientUnits="objectBoundingBox">
      <stop offset="0" stop-color="#f9ca64"/>
      <stop offset="1" stop-color="#f9aa00"/>
    </linearGradient>
    <linearGradient id="linear-gradient-6" x1="0.418" y1="-0.08" x2="0.776" y2="1.924" gradientUnits="objectBoundingBox">
      <stop offset="0.029" stop-color="#009794"/>
      <stop offset="1" stop-color="#00807d"/>
    </linearGradient>
    <linearGradient id="linear-gradient-7" x1="0" y1="0.5" x2="1" y2="0.5" xlink:href="#linear-gradient-3"/>
    <linearGradient id="linear-gradient-8" x1="0.5" y1="-2.434" x2="0.5" y2="1.38" xlink:href="#linear-gradient-4"/>
    <linearGradient id="linear-gradient-9" x1="0.5" y1="-0.506" x2="0.5" y2="1.167" gradientUnits="objectBoundingBox">
      <stop offset="0" stop-color="#f9c75a"/>
      <stop offset="1" stop-color="#f9aa00"/>
    </linearGradient>
    <linearGradient id="linear-gradient-10" x1="0.5" y1="0.016" x2="0.5" y2="1.109" xlink:href="#linear-gradient-9"/>
    <linearGradient id="linear-gradient-11" x1="-0.075" y1="-1.087" x2="0.706" y2="1.07" xlink:href="#linear-gradient-3"/>
    <linearGradient id="linear-gradient-12" x1="0.081" y1="-0.095" x2="0.862" y2="1.014" xlink:href="#linear-gradient-3"/>
    <clipPath id="clip-path">
      <rect id="Rectangle_366" data-name="Rectangle 366" width="130.983" height="156.329" transform="translate(371.973 2717.956)" fill="none"/>
    </clipPath>
    <linearGradient id="linear-gradient-13" y1="0.5" x2="1" y2="0.5" gradientUnits="objectBoundingBox">
      <stop offset="0" stop-color="#d18166"/>
      <stop offset="1" stop-color="#e18b6d"/>
    </linearGradient>
    <linearGradient id="linear-gradient-14" x1="0.145" y1="-0.493" x2="0.952" y2="1.46" xlink:href="#linear-gradient-4"/>
    <linearGradient id="linear-gradient-15" x1="-0.024" y1="0.284" x2="1.142" y2="0.884" xlink:href="#linear-gradient-4"/>
    <linearGradient id="linear-gradient-16" x1="0.314" y1="-0.41" x2="0.612" y2="0.758" xlink:href="#linear-gradient-13"/>
    <linearGradient id="linear-gradient-17" x1="0.342" y1="0.418" x2="0.753" y2="1.234" xlink:href="#linear-gradient-13"/>
    <linearGradient id="linear-gradient-20" x1="1.969" y1="-0.186" x2="2.878" y2="0.873" xlink:href="#linear-gradient-4"/>
    <linearGradient id="linear-gradient-21" x1="0.157" y1="0.057" x2="0.938" y2="1.065" gradientUnits="objectBoundingBox">
      <stop offset="0.029" stop-color="#009794"/>
      <stop offset="1" stop-color="#007a78"/>
    </linearGradient>
    <linearGradient id="linear-gradient-22" x1="-0.29" y1="-0.538" x2="0.718" y2="0.846" xlink:href="#linear-gradient-5"/>
  </defs>
  <g id="Group_781" data-name="Group 781" transform="translate(-260.088 -2697.584)">
    <g id="Group_780" data-name="Group 780">
      <g id="Group_724" data-name="Group 724" opacity="0.15">
        <g id="Group_722" data-name="Group 722">
          <path id="Path_360" data-name="Path 360" d="M332.927,2819.992a9.87,9.87,0,0,0-2.031-3.446l-5.4,1.715a18.657,18.657,0,0,0-2.9-2.659l1.294-5.6c-.542-.27-1.18-.561-1.753-.856a4.587,4.587,0,0,0-1.77-.794l-3.471,4.808a9.349,9.349,0,0,0-3.932-.46l-2.144-5.434a15.778,15.778,0,0,0-3.939.877l0,5.85a12.664,12.664,0,0,0-3.381,1.836l-4.845-3.052a22.79,22.79,0,0,0-2.712,2.967l3.437,4.676c-.367.638-.706,1.264-.982,1.721-.23.582-.481,1.325-.72,1.822l-5.749.56a21.831,21.831,0,0,0-.374,3.926l5.521,1.8a12.852,12.852,0,0,0,.776,3.749l-4.432,3.832a16.132,16.132,0,0,0,2.03,3.448l5.472-1.9a12.014,12.014,0,0,0,2.816,2.831l-1.314,5.582c.577.3,1.182.563,1.885.84a6.79,6.79,0,0,1,1.706.823l3.413-4.808a18.189,18.189,0,0,0,3.924.45l2.14,5.429a16.909,16.909,0,0,0,3.938-.869l.034-5.829a22.186,22.186,0,0,0,3.342-1.867l5.019,2.813a12.6,12.6,0,0,0,2.611-2.823L327,2837.276a11.86,11.86,0,0,0,.941-1.613c.284-.706.517-1.37.691-1.835l5.747-.561a14.188,14.188,0,0,0,.441-3.944L329.3,2827.6a16.979,16.979,0,0,0-.759-3.734ZM322.4,2833.081a10.071,10.071,0,0,1-13.426,4.985,10.158,10.158,0,1,1,13.426-4.985Z" fill="#fff"/>
        </g>
        <g id="Group_723" data-name="Group 723">
          <path id="Path_361" data-name="Path 361" d="M353.527,2792.5a7.033,7.033,0,0,0-1.926-2.109l-3.522,1.993a13.313,13.313,0,0,0-2.416-1.432l.08-4.1c-.418-.109-.907-.218-1.35-.34a3.273,3.273,0,0,0-1.354-.294l-1.718,3.869a6.689,6.689,0,0,0-2.814.257l-2.3-3.481a11.3,11.3,0,0,0-2.623,1.192l.863,4.087a9.051,9.051,0,0,0-2.092,1.78l-3.834-1.42a16.416,16.416,0,0,0-1.458,2.472l3.089,2.761c-.162.5-.307.988-.433,1.347-.075.441-.141,1-.235,1.379l-3.934,1.237a15.661,15.661,0,0,0,.316,2.8l4.121.441a9.185,9.185,0,0,0,1.094,2.506l-2.532,3.329a11.48,11.48,0,0,0,1.925,2.11l3.544-2.131a8.584,8.584,0,0,0,2.384,1.565l-.1,4.092a14.639,14.639,0,0,0,1.44.31,4.846,4.846,0,0,1,1.313.324l1.677-3.861a12.957,12.957,0,0,0,2.808-.263l2.293,3.478a12.079,12.079,0,0,0,2.624-1.186l-.834-4.077a15.95,15.95,0,0,0,2.061-1.8l3.92,1.227a9.031,9.031,0,0,0,1.409-2.356l-3.089-2.76a8.532,8.532,0,0,0,.42-1.265c.094-.535.16-1.033.213-1.384l3.932-1.237a10.078,10.078,0,0,0-.272-2.821l-4.111-.393a12.129,12.129,0,0,0-1.08-2.5Zm-5.429,10.693a7.191,7.191,0,0,1-8.647,5.457,7.252,7.252,0,1,1,8.647-5.457Z" fill="#fff"/>
        </g>
      </g>
      <g id="Group_725" data-name="Group 725" opacity="0.6">
        <path id="Path_362" data-name="Path 362" d="M327.727,2956.132h-.038l-.054,0a1.175,1.175,0,1,1,.092,0Zm5.272-.017a1.172,1.172,0,0,1-.072-2.342l.054,0a1.172,1.172,0,0,1,.077,2.343C333.038,2956.115,333.018,2956.115,333,2956.115Zm.025-.96v.021l-.007-.234Zm-10.571.554a1.216,1.216,0,0,1-.148-.009l-.021,0a1.164,1.164,0,1,1,.169.012Zm15.817-.053a1.172,1.172,0,0,1-.149-2.334l.021,0a1.172,1.172,0,0,1,.3,2.326l-.148-1.163.132,1.164A1.092,1.092,0,0,1,338.27,2955.656Zm-21.037-.807a1.139,1.139,0,0,1-.224-.022l-.053-.011a1.169,1.169,0,1,1,.277.033Zm26.251-.092a1.188,1.188,0,1,1,.277-.033l-.053.011A1.15,1.15,0,0,1,343.484,2954.757Zm-31.383-1.2a1.159,1.159,0,0,1-.331-.048l-.022-.007a1.161,1.161,0,1,1,.353.055Zm36.5-.134a1.172,1.172,0,0,1-.371-2.284l.056-.018a1.173,1.173,0,1,1,.315,2.3Zm.064-1.018,0,.012-.051-.172Zm-41.569-.563a1.2,1.2,0,0,1-.412-.075l-.049-.019a1.18,1.18,0,1,1,.461.094Zm46.494-.181a1.2,1.2,0,1,1,.458-.094l-.049.02A1.174,1.174,0,0,1,353.6,2951.66Zm-51.344-1.95a1.145,1.145,0,0,1-.511-.12l-.023-.011a1.163,1.163,0,1,1,.534.131Zm56.167-.228a1.172,1.172,0,0,1-.554-2.2l.053-.027a1.172,1.172,0,1,1,.5,2.232Zm.086-1.035.006.011-.077-.156Zm-60.888-1.264a1.173,1.173,0,0,1-.6-.165l-.043-.026a1.179,1.179,0,1,1,.644.191Zm65.425-.276a1.192,1.192,0,1,1,.638-.19l-.042.026A1.165,1.165,0,0,1,363.041,2946.907Zm-69.839-2.634a1.179,1.179,0,0,1-.68-.216l-.039-.028a1.178,1.178,0,1,1,.719.244Zm74.229-.318a1.185,1.185,0,1,1,.714-.243l-.047.034A1.169,1.169,0,0,1,367.431,2943.955ZM289.045,2941a1.163,1.163,0,0,1-.771-.29l.771-.882-.775.879a1.172,1.172,0,0,1,1.522-1.783l.025.022a1.171,1.171,0,0,1-.772,2.054Zm82.52-.351a1.178,1.178,0,1,1,.785-.3l-.025.022A1.168,1.168,0,0,1,371.565,2940.648Zm-86.384-3.262a1.177,1.177,0,1,1,.806-2.023l.04.041a1.171,1.171,0,0,1-.846,1.982Zm-.132-1.046-.011.011.142-.137Zm90.359.673a1.188,1.188,0,1,1,.86-.375l-.031.031A1.169,1.169,0,0,1,375.408,2937.013Zm-93.786-3.554a1.152,1.152,0,0,1-.891-.418l-.018-.021a1.165,1.165,0,1,1,.909.439Zm97.31-.387a1.174,1.174,0,0,1-.914-1.909l.026-.032a1.172,1.172,0,1,1,1.8,1.5l-.9-.751.9.753A1.16,1.16,0,0,1,378.932,2933.072Zm-100.513-3.813a1.17,1.17,0,0,1-.965-.505l.964-.667-.967.663a1.172,1.172,0,0,1,1.911-1.358l.019.028a1.171,1.171,0,0,1-.962,1.839Zm103.691-.421a1.17,1.17,0,0,1-.971-1.822l.019-.028a1.172,1.172,0,1,1,1.927,1.334l-.963-.667.96.672A1.176,1.176,0,0,1,382.11,2928.838Zm-106.556-4.04a1.158,1.158,0,0,1-1-.569l-.018-.032a1.167,1.167,0,1,1,1.017.6Zm109.367-.435a1.171,1.171,0,0,1-1.017-1.753l.01-.018a1.172,1.172,0,1,1,2.033,1.167l-1.016-.584,1.009.6A1.173,1.173,0,0,1,384.921,2924.363Zm-111.828-4.238a1.171,1.171,0,0,1-1.063-.677l1.062-.5-1.064.492a1.166,1.166,0,0,1,.528-1.565,1.181,1.181,0,0,1,1.577.532l.022.046a1.171,1.171,0,0,1-1.062,1.667Zm114.252-.462a1.173,1.173,0,0,1-1.063-1.666l1.071.477,1.056.51A1.174,1.174,0,0,1,387.345,2919.663Zm-116.321-4.408a1.173,1.173,0,0,1-1.1-.769l1.1-.4-1.1.4a1.164,1.164,0,0,1,.66-1.514,1.178,1.178,0,0,1,1.524.664l.018.046a1.173,1.173,0,0,1-1.1,1.576Zm118.341-.481a1.159,1.159,0,0,1-.4-.07,1.172,1.172,0,0,1-.7-1.5l.008-.022a1.172,1.172,0,0,1,2.2.807l-1.1-.4,1.1.416A1.173,1.173,0,0,1,389.365,2914.774Zm-119.991-4.546a1.173,1.173,0,0,1-1.13-.863l1.13-.31-1.131.307a1.172,1.172,0,0,1,2.249-.661l.013.044a1.172,1.172,0,0,1-.821,1.44A1.145,1.145,0,0,1,269.374,2910.228Zm121.6-.494a1.173,1.173,0,0,1-1.134-1.475l.007-.025a1.172,1.172,0,1,1,2.261.62l-1.13-.31,1.127.319A1.171,1.171,0,0,1,390.971,2909.734Zm-122.823-4.664a1.162,1.162,0,0,1-1.144-.941l0-.018a1.172,1.172,0,1,1,1.375.937A1.2,1.2,0,0,1,268.148,2905.07Zm124-.494a1.131,1.131,0,0,1-.224-.022,1.177,1.177,0,1,1,1.38-.964l-.006.036A1.173,1.173,0,0,1,392.149,2904.576Zm-124.778-4.729a1.173,1.173,0,0,1-1.163-1.042l-.005-.04a1.172,1.172,0,1,1,1.3,1.075A1.226,1.226,0,0,1,267.371,2899.847Zm125.523-.51q-.064,0-.129-.006a1.177,1.177,0,1,1,1.3-1.071l0,.033A1.171,1.171,0,0,1,392.894,2899.337Zm-125.863-4.772a1.172,1.172,0,0,1-1.172-1.154l1.172-.018-1.172.014a1.176,1.176,0,0,1,1.142-1.2h.031a1.167,1.167,0,0,1,1.17,1.13v.037a1.172,1.172,0,0,1-1.154,1.191Zm126.167-.51h-.019a1.177,1.177,0,0,1,.019-2.353h.018a1.164,1.164,0,0,1,1.154,1.181v.019A1.172,1.172,0,0,1,393.2,2894.055Zm-126.065-4.789c-.025,0-.05,0-.075,0a1.164,1.164,0,0,1-1.1-1.233l0-.021a1.172,1.172,0,0,1,2.339.151A1.181,1.181,0,0,1,267.133,2889.266Zm125.926-.505a1.168,1.168,0,0,1-1.166-1.073l0-.04a1.172,1.172,0,0,1,2.34-.146l-1.17.073,1.17-.069a1.176,1.176,0,0,1-1.083,1.251C393.117,2888.759,393.088,2888.761,393.059,2888.761Zm-125.384-4.749a1.086,1.086,0,0,1-.17-.013,1.172,1.172,0,0,1-.992-1.328l1.161.168-1.159-.181a1.172,1.172,0,0,1,2.322.327l0,.023A1.173,1.173,0,0,1,267.675,2884.012Zm124.807-.506a1.182,1.182,0,1,1,1.156-1.377l.006.041a1.172,1.172,0,0,1-1,1.324A1.158,1.158,0,0,1,392.482,2883.506Zm-123.829-4.689a1.248,1.248,0,0,1-.261-.029,1.177,1.177,0,0,1-.884-1.406l.01-.044a1.173,1.173,0,1,1,1.135,1.479Zm122.812-.5a1.176,1.176,0,1,1,1.136-1.465l.006.027a1.173,1.173,0,0,1-.875,1.408A1.227,1.227,0,0,1,391.465,2878.313Zm-121.408-4.61a1.168,1.168,0,0,1-1.115-1.517l.011-.034a1.172,1.172,0,0,1,2.224.742A1.186,1.186,0,0,1,270.057,2873.7Zm119.957-.478a1.176,1.176,0,1,1,1.106-1.56l.006.017a1.172,1.172,0,0,1-1.112,1.543Zm-118.129-4.485a1.169,1.169,0,0,1-1.08-1.611l.013-.032a1.172,1.172,0,1,1,2.153.928A1.187,1.187,0,0,1,271.885,2868.74Zm116.254-.462a1.176,1.176,0,1,1,1.068-1.654l.007.017a1.17,1.17,0,0,1-.612,1.54A1.153,1.153,0,0,1,388.139,2868.278Zm-114.015-4.33a1.17,1.17,0,0,1-1.039-1.7l.009-.016a1.172,1.172,0,1,1,2.081,1.078A1.185,1.185,0,0,1,274.124,2863.948Zm111.729-.442a1.176,1.176,0,1,1,1.023-1.742l.009.016a1.173,1.173,0,0,1-1.032,1.726Zm-109.1-4.144a1.152,1.152,0,0,1-.62-.18,1.164,1.164,0,0,1-.37-1.608l.012-.018a1.172,1.172,0,1,1,1.979,1.256A1.186,1.186,0,0,1,276.758,2859.362Zm106.415-.418a1.171,1.171,0,0,1-.973-.518l-.03-.045a1.173,1.173,0,1,1,1,.563Zm.2-1.32-.21.132Zm-103.6-2.6a1.172,1.172,0,0,1-.932-1.882l.933.709-.929-.715a1.172,1.172,0,0,1,1.88,1.4l-.018.024A1.172,1.172,0,0,1,279.769,2855.025Zm100.354-.4a1.18,1.18,0,1,1,.912-1.908l.027.035a1.173,1.173,0,0,1-.939,1.873Zm-96.986-3.682a1.169,1.169,0,0,1-.876-1.943l.021-.023a1.172,1.172,0,1,1,.855,1.966Zm3.7-3.773a1.172,1.172,0,0,1-.8-2.028l.8.856-.8-.86a1.172,1.172,0,0,1,1.619,1.695l-.023.022A1.168,1.168,0,0,1,286.835,2847.165Zm4-3.458a1.173,1.173,0,0,1-.73-2.09l.73.917-.718-.926a1.172,1.172,0,0,1,1.464,1.83l-.016.013A1.168,1.168,0,0,1,290.835,2843.707Z" fill="#fff"/>
      </g>
      <g id="Group_731" data-name="Group 731">
        <g id="Group_730" data-name="Group 730">
          <g id="Group_729" data-name="Group 729">
            <g id="Group_728" data-name="Group 728">
              <g id="Group_727" data-name="Group 727">
                <g id="Group_726" data-name="Group 726">
                  <path id="Path_363" data-name="Path 363" d="M496.657,2924.186H439.605l5.554-34.218H491.1Z" fill="url(#linear-gradient)"/>
                </g>
              </g>
              <path id="Path_364" data-name="Path 364" d="M496.668,2923.927h-57l-4.625,4.019c-.735.757-.058,1.856,1.143,1.856h63.883c1.2,0,1.879-1.1,1.144-1.856Z" fill="#6b6e6e"/>
              <rect id="Rectangle_334" data-name="Rectangle 334" width="207.379" height="145.478" rx="22.756" transform="translate(364.441 2747.193)" fill="#24252e"/>
              <rect id="Rectangle_335" data-name="Rectangle 335" width="195.238" height="120.613" transform="translate(370.512 2753.616)" fill="url(#linear-gradient-2)"/>
              <path id="Path_365" data-name="Path 365" d="M565.9,2760.852l-195.416.157.03-7.393H565.75Z" fill="url(#linear-gradient-3)"/>
            </g>
          </g>
        </g>
      </g>
      <g id="Group_732" data-name="Group 732" opacity="0.6">
        <path id="Path_366" data-name="Path 366" d="M598.967,2869.56h-.056a1.17,1.17,0,1,1,.056,0Zm5.27-.07a1.172,1.172,0,0,1-.074-2.342h.02a1.172,1.172,0,1,1,.146,2.339l-.073-1.169.058,1.17Zm-10.544-.336a1.322,1.322,0,0,1-.151-.01l.15-1.163-.164,1.161a1.172,1.172,0,0,1,.291-2.326l.023,0a1.172,1.172,0,0,1-.149,2.335Zm15.8-.208a1.188,1.188,0,1,1,.206-.018l-.06.009A1.184,1.184,0,0,1,609.5,2868.946Zm-21.022-.673a1.2,1.2,0,0,1-.256-.028,1.172,1.172,0,0,1,.46-2.3l.053.011a1.172,1.172,0,0,1-.257,2.316Zm-.049-.962,0,.021.052-.231Zm26.263.623a1.172,1.172,0,0,1-.3-2.305l.061-.015a1.172,1.172,0,0,1,.523,2.285A1.141,1.141,0,0,1,614.69,2867.934Zm.048-1.046,0,.008-.031-.139Zm-31.378.037a1.191,1.191,0,0,1-.337-.049l-.051-.016a1.173,1.173,0,1,1,.388.065Zm36.412-.462a1.18,1.18,0,1,1,.388-.066l-.017.005A1.171,1.171,0,0,1,619.772,2866.463Zm-41.391-1.338a1.164,1.164,0,0,1-.444-.089l-.016-.007a1.161,1.161,0,1,1,.46.1Zm46.322-.581a1.193,1.193,0,1,1,.5-.11l-.048.021A1.165,1.165,0,0,1,624.7,2864.544Zm4.741-2.35a1.173,1.173,0,0,1-.6-2.181l.06-.034a1.173,1.173,0,1,1,.539,2.215Zm.063-1.09,0,0-.051-.095Zm4.449-1.675a1.184,1.184,0,1,1,.681-.218l-.058.038A1.166,1.166,0,0,1,633.956,2859.429Zm4.243-3.154a1.174,1.174,0,0,1-.749-2.077l.033-.026a1.172,1.172,0,1,1,1.464,1.83l-.732-.915.729.918A1.156,1.156,0,0,1,638.2,2856.275Zm3.947-3.532a1.172,1.172,0,0,1-.847-1.983l.049-.049a1.172,1.172,0,1,1,.8,2.032Zm.079-1.115,0,0-.069-.072Zm3.53-2.755a1.173,1.173,0,0,1-.914-1.905l.045-.053a1.172,1.172,0,1,1,.869,1.958Zm.087-1.122,0,0-.077-.068Zm3.16-3.059a1.188,1.188,0,1,1,.975-.52l-.028.039A1.17,1.17,0,0,1,649,2844.692Zm2.855-4.459a1.155,1.155,0,0,1-.584-.157,1.168,1.168,0,0,1-.432-1.591l.018-.032a1.172,1.172,0,0,1,2.017,1.2l-1.008-.6,1.006.6A1.18,1.18,0,0,1,651.857,2840.233Zm2.448-4.684a1.183,1.183,0,1,1,1.078-.709c-.006.015-.021.046-.028.061A1.173,1.173,0,0,1,654.3,2835.549Zm2.025-4.894a1.141,1.141,0,0,1-.388-.067,1.167,1.167,0,0,1-.719-1.482l.014-.038a1.172,1.172,0,1,1,2.2.807l-1.1-.4,1.1.407A1.181,1.181,0,0,1,656.33,2830.655Zm1.583-5.042a1.178,1.178,0,1,1,1.139-.9l-.007.027A1.174,1.174,0,0,1,657.913,2825.613Zm1.121-5.171a1.1,1.1,0,0,1-.221-.021,1.185,1.185,0,1,1,1.38-.982l-.009.05A1.173,1.173,0,0,1,659.034,2820.442Zm.649-5.25c-.037,0-.074,0-.112,0a1.18,1.18,0,1,1,1.282-1.111l0,.055A1.173,1.173,0,0,1,659.683,2815.192Zm.171-5.288a1.173,1.173,0,0,1-1.171-1.136v-.054a1.172,1.172,0,1,1,1.209,1.189Zm0-1.19h0Zm1.172,0h0Zm-1.477-4.091a1.172,1.172,0,0,1-1.161-1.023l-.006-.056a1.172,1.172,0,1,1,1.318,1.069A1.321,1.321,0,0,1,659.55,2804.623Zm.2-1.209-.2.018Zm-.97-4.023a1.176,1.176,0,1,1,1.149-1.413l0,.018a1.172,1.172,0,0,1-.928,1.373A1.132,1.132,0,0,1,658.775,2799.391Zm-1.239-5.142a1.183,1.183,0,1,1,1.12-1.522l.013.047a1.174,1.174,0,0,1-1.133,1.475Zm-1.683-5.005a1.185,1.185,0,0,1-1.1-.738l-.02-.049a1.172,1.172,0,0,1,2.2-.819l-1.1.409,1.1-.407a1.165,1.165,0,0,1-.648,1.519A1.148,1.148,0,0,1,655.853,2789.244Zm-108.405-3.658a1.159,1.159,0,0,1-.488-.107,1.176,1.176,0,0,1-.579-1.556l.019-.039a1.172,1.172,0,1,1,1.048,1.7Zm106.263-1.191a1.172,1.172,0,0,1-1.049-.649l-.012-.023a1.172,1.172,0,0,1,2.1-1.034l-1.052.517,1.056-.508a1.173,1.173,0,0,1-1.047,1.7Zm-103.813-3.51a1.152,1.152,0,0,1-.587-.16,1.164,1.164,0,0,1-.424-1.592l.014-.024a1.172,1.172,0,0,1,2.017,1.2A1.186,1.186,0,0,1,549.9,2780.885Zm101.257-1.123a1.181,1.181,0,1,1,.981-1.812l.026.042a1.173,1.173,0,0,1-1.007,1.77Zm-98.4-3.32a1.171,1.171,0,0,1-.963-1.837l.034-.048a1.172,1.172,0,1,1,.929,1.885Zm95.433-1.066a1.175,1.175,0,1,1,.928-1.887l.011.015a1.172,1.172,0,0,1-.939,1.872Zm-92.182-3.109a1.185,1.185,0,1,1,.92-.445l-.037.045A1.168,1.168,0,0,1,556.011,2772.267Zm-.14-1.3.141.124Zm88.978.3a1.167,1.167,0,0,1-.882-.4,1.18,1.18,0,0,1,.1-1.657,1.165,1.165,0,0,1,1.645.091l.02.022a1.172,1.172,0,0,1-.882,1.944Zm-85.222-2.873a1.185,1.185,0,1,1,.851-.366l-.041.041A1.169,1.169,0,0,1,559.627,2768.4Zm-.137-1.315.136.142Zm81.656.4a1.166,1.166,0,0,1-.79-.308l-.021-.02a1.172,1.172,0,1,1,1.6-1.713l-.8.857.806-.852a1.173,1.173,0,0,1-.795,2.036Zm-77.57-2.613a1.172,1.172,0,0,1-.733-2.088l.732.916-.729-.918a1.172,1.172,0,0,1,1.494,1.807l-.033.026A1.165,1.165,0,0,1,563.576,2764.877Zm73.544-.822a1.165,1.165,0,0,1-.72-.248,1.18,1.18,0,0,1-.211-1.65,1.164,1.164,0,0,1,1.639-.209l.014.011a1.172,1.172,0,0,1-.722,2.1Zm-69.286-2.34a1.17,1.17,0,0,1-.664-2.137l.019-.013a1.173,1.173,0,1,1,.645,2.15ZM632.8,2761a1.176,1.176,0,1,1,.61-2.174l.045.03A1.172,1.172,0,0,1,632.8,2761Zm-60.459-2.034a1.173,1.173,0,0,1-.569-2.2l.568,1.026-.553-1.034a1.172,1.172,0,1,1,1.138,2.05l-.017.009A1.163,1.163,0,0,1,572.34,2758.963Zm55.884-.622a1.174,1.174,0,1,1,.524-2.222l.031.016a1.173,1.173,0,0,1-.555,2.206Zm-51.142-1.723a1.172,1.172,0,0,1-.464-2.249l.464,1.076-.46-1.078a1.172,1.172,0,0,1,.956,2.141l-.032.014A1.174,1.174,0,0,1,577.082,2756.618Zm46.35-.519a1.157,1.157,0,0,1-.447-.089,1.18,1.18,0,0,1-.644-1.535,1.164,1.164,0,0,1,1.523-.638l.017.007a1.172,1.172,0,0,1-.449,2.255Zm-41.418-1.394a1.173,1.173,0,0,1-.37-2.285l.371,1.112-.367-1.113a1.172,1.172,0,0,1,.771,2.214l-.034.011A1.172,1.172,0,0,1,582.014,2754.705Zm36.448-.414a1.181,1.181,0,0,1-1.126-1.529A1.163,1.163,0,0,1,618.8,2752l.018,0a1.173,1.173,0,0,1-.354,2.29Zm-31.35-1.057a1.177,1.177,0,0,1-1.146-.9,1.163,1.163,0,0,1,.856-1.408l.027-.007a1.172,1.172,0,1,1,.263,2.314Zm26.237-.3a1.213,1.213,0,0,1-.259-.029,1.181,1.181,0,0,1-.9-1.4,1.164,1.164,0,0,1,1.377-.9l.035.008a1.172,1.172,0,0,1-.257,2.316Zm-21.061-.7a1.173,1.173,0,0,1-.167-2.333l.169,1.16-.162-1.161a1.173,1.173,0,0,1,.361,2.317l-.031,0A1.087,1.087,0,0,1,592.288,2752.232Zm15.846-.187a1.137,1.137,0,0,1-.128-.007l-.041-.005a1.172,1.172,0,0,1,.3-2.325l-.15,1.163.154-1.162a1.172,1.172,0,0,1-.135,2.336Zm-10.566-.353a1.179,1.179,0,0,1-1.178-1.107,1.164,1.164,0,0,1,1.088-1.234l.035,0a1.172,1.172,0,0,1,.113,2.342Zm5.292-.062h-.038a1.172,1.172,0,0,1,.056-2.343h.019a1.172,1.172,0,0,1-.037,2.344Z" fill="#fff"/>
      </g>
      <g id="Group_733" data-name="Group 733" opacity="0.184">
        <path id="Path_367" data-name="Path 367" d="M650.706,2713.44a9.833,9.833,0,0,0-9.382,12.748h-.033s2,5.4,2.5,7.251a58.89,58.89,0,0,1,1.382,6.029l10.951.508a41.934,41.934,0,0,1,1.444-6.537c.348-1.3,1.439-4.351,2.057-6.051a9.823,9.823,0,0,0-8.916-13.948Z" fill="#fff"/>
        <path id="Path_368" data-name="Path 368" d="M645.031,2742.474v.326a3.024,3.024,0,0,0,.057.582l11.208.52a2.667,2.667,0,0,0,.085-.654V2743h-.025Z" fill="#fff"/>
        <path id="Path_369" data-name="Path 369" d="M645.031,2740.515v.91a.146.146,0,0,1,.024,0l11.326.525v-.906h-.025Z" fill="#fff"/>
        <path id="Path_370" data-name="Path 370" d="M648.124,2745.9a2.745,2.745,0,0,0,5.163,0h.447a2.641,2.641,0,0,0,2.042-.963l-10.259-.476A3.1,3.1,0,0,0,648.124,2745.9Z" fill="#fff"/>
        <path id="Path_371" data-name="Path 371" d="M644.452,2710.383a1.141,1.141,0,0,0,2.119-.845l-2.182-5.474a1.14,1.14,0,0,0-2.119.844Z" fill="#fff"/>
        <path id="Path_372" data-name="Path 372" d="M669.919,2715.045a1.14,1.14,0,0,0-1.482-.638l-5.475,2.182a1.141,1.141,0,0,0,.845,2.119l5.474-2.182A1.14,1.14,0,0,0,669.919,2715.045Z" fill="#fff"/>
        <path id="Path_373" data-name="Path 373" d="M655.59,2711.15a1.113,1.113,0,0,0,.45.093,1.14,1.14,0,0,0,1.048-.69l2.328-5.413a1.141,1.141,0,0,0-2.1-.9l-2.328,5.414A1.14,1.14,0,0,0,655.59,2711.15Z" fill="#fff"/>
        <path id="Path_374" data-name="Path 374" d="M638.416,2716.257,633,2713.929a1.141,1.141,0,0,0-.9,2.1l5.414,2.328a1.141,1.141,0,0,0,.9-2.1Z" fill="#fff"/>
      </g>
      <g id="Group_754" data-name="Group 754">
        <path id="Path_375" data-name="Path 375" d="M574.282,2877.679v50.781a4.136,4.136,0,0,0,4.135,4.136h3.677a4.136,4.136,0,0,0,4.135-4.136v-50.781Z" fill="#e63f33"/>
        <rect id="Rectangle_336" data-name="Rectangle 336" width="132.736" height="92.178" transform="translate(513.888 2838.648)" fill="url(#linear-gradient-4)"/>
        <g id="Group_753" data-name="Group 753">
          <path id="Path_376" data-name="Path 376" d="M517.937,2923.941v2.848H642.52v-2.848l-62.257-10.661Z" fill="#dcdcdc"/>
          <path id="Path_377" data-name="Path 377" d="M580.255,2923.941a51.278,51.278,0,0,0-19.334-4.077c-10.776,0-42.984,4.077-42.984,4.077v-86.935s27.08-5.066,43.821-5.066c11.719,0,18.5,5.066,18.5,5.066Z" fill="#fff"/>
          <path id="Path_378" data-name="Path 378" d="M580.255,2923.941s6.469-4.077,19.335-4.077c10.776,0,42.984,4.077,42.984,4.077v-86.935s-27.08-5.066-43.821-5.066c-11.719,0-18.5,5.066-18.5,5.066Z" fill="#fff"/>
          <g id="Group_734" data-name="Group 734">
            <path id="Path_379" data-name="Path 379" d="M580.255,2923.941s-.193-.166-.418-.341v-86.829a4.407,4.407,0,0,1,.418.235s.209-.133.416-.235l0,86.829A1.963,1.963,0,0,0,580.255,2923.941Z" fill="#dcdcdc"/>
          </g>
          <g id="Group_743" data-name="Group 743">
            <g id="Group_735" data-name="Group 735">
              <path id="Path_380" data-name="Path 380" d="M570.729,2843.778a47.576,47.576,0,0,0-9.852-1.006c-10.2,0-24.087,1.516-33.985,2.794v2.664c9.791-1.266,23.96-2.776,33.985-2.776a43.792,43.792,0,0,1,9.052.922l1.7.36v-2.768Z" fill="#9dd0dc"/>
            </g>
            <g id="Group_736" data-name="Group 736">
              <path id="Path_381" data-name="Path 381" d="M570.729,2852.392a47.576,47.576,0,0,0-9.852-1.006c-10.2,0-24.087,1.516-33.985,2.795v2.663c9.791-1.266,23.96-2.776,33.985-2.776a43.792,43.792,0,0,1,9.052.922l1.7.36v-2.768Z" fill="#9dd0dc"/>
            </g>
            <g id="Group_737" data-name="Group 737">
              <path id="Path_382" data-name="Path 382" d="M570.729,2861.006a47.559,47.559,0,0,0-9.852-1.006c-10.2,0-24.087,1.517-33.985,2.795v2.664c9.791-1.267,23.96-2.777,33.985-2.777a43.725,43.725,0,0,1,9.052.923l1.7.359V2861.2Z" fill="#9dd0dc"/>
            </g>
            <g id="Group_738" data-name="Group 738">
              <path id="Path_383" data-name="Path 383" d="M570.729,2869.62a47.559,47.559,0,0,0-9.852-1.006c-10.2,0-24.087,1.517-33.985,2.795v2.664c9.791-1.267,23.96-2.776,33.985-2.776a43.725,43.725,0,0,1,9.052.922l1.7.359v-2.768Z" fill="#9dd0dc"/>
            </g>
            <g id="Group_739" data-name="Group 739">
              <path id="Path_384" data-name="Path 384" d="M570.729,2878.234a47.643,47.643,0,0,0-9.852-1.006c-10.2,0-24.087,1.517-33.985,2.795v2.664c9.791-1.267,23.96-2.776,33.985-2.776a43.725,43.725,0,0,1,9.052.922l1.7.359v-2.768Z" fill="#9dd0dc"/>
            </g>
            <g id="Group_740" data-name="Group 740">
              <path id="Path_385" data-name="Path 385" d="M570.729,2886.848a47.643,47.643,0,0,0-9.852-1.006c-10.2,0-24.087,1.517-33.985,2.795v2.664c9.791-1.266,23.96-2.776,33.985-2.776a43.725,43.725,0,0,1,9.052.922l1.7.359v-2.768Z" fill="#9dd0dc"/>
            </g>
            <g id="Group_741" data-name="Group 741">
              <path id="Path_386" data-name="Path 386" d="M570.729,2895.462a47.643,47.643,0,0,0-9.852-1.006c-10.2,0-24.087,1.517-33.985,2.795v2.664c9.791-1.266,23.96-2.776,33.985-2.776a43.725,43.725,0,0,1,9.052.922l1.7.359v-2.768Z" fill="#9dd0dc"/>
            </g>
            <g id="Group_742" data-name="Group 742">
              <path id="Path_387" data-name="Path 387" d="M570.729,2904.076a47.643,47.643,0,0,0-9.852-1c-10.2,0-24.087,1.516-33.985,2.794v2.664c9.791-1.266,23.96-2.776,33.985-2.776a43.725,43.725,0,0,1,9.052.922l1.7.36v-2.769Z" fill="#9dd0dc"/>
            </g>
          </g>
          <g id="Group_752" data-name="Group 752">
            <g id="Group_744" data-name="Group 744">
              <path id="Path_388" data-name="Path 388" d="M590.534,2843.778a47.593,47.593,0,0,1,9.853-1.006c10.195,0,24.087,1.516,33.984,2.794v2.664c-9.791-1.266-23.959-2.776-33.984-2.776a43.792,43.792,0,0,0-9.052.922l-1.7.36v-2.768Z" fill="#9dd0dc"/>
            </g>
            <g id="Group_745" data-name="Group 745">
              <path id="Path_389" data-name="Path 389" d="M590.534,2852.392a47.593,47.593,0,0,1,9.853-1.006c10.195,0,24.087,1.516,33.984,2.795v2.663c-9.791-1.266-23.959-2.776-33.984-2.776a43.792,43.792,0,0,0-9.052.922l-1.7.36v-2.768Z" fill="#9dd0dc"/>
            </g>
            <g id="Group_746" data-name="Group 746">
              <path id="Path_390" data-name="Path 390" d="M590.534,2861.006a47.576,47.576,0,0,1,9.853-1.006c10.195,0,24.087,1.517,33.984,2.795v2.664c-9.791-1.267-23.959-2.777-33.984-2.777a43.724,43.724,0,0,0-9.052.923l-1.7.359V2861.2Z" fill="#9dd0dc"/>
            </g>
            <g id="Group_747" data-name="Group 747">
              <path id="Path_391" data-name="Path 391" d="M590.534,2869.62a47.576,47.576,0,0,1,9.853-1.006c10.195,0,24.087,1.517,33.984,2.795v2.664c-9.791-1.267-23.959-2.776-33.984-2.776a43.725,43.725,0,0,0-9.052.922l-1.7.359v-2.768Z" fill="#9dd0dc"/>
            </g>
            <g id="Group_748" data-name="Group 748">
              <path id="Path_392" data-name="Path 392" d="M590.534,2878.234a47.66,47.66,0,0,1,9.853-1.006c10.195,0,24.087,1.517,33.984,2.795v2.664c-9.791-1.267-23.959-2.776-33.984-2.776a43.725,43.725,0,0,0-9.052.922l-1.7.359v-2.768Z" fill="#9dd0dc"/>
            </g>
            <g id="Group_749" data-name="Group 749">
              <path id="Path_393" data-name="Path 393" d="M590.534,2886.848a47.66,47.66,0,0,1,9.853-1.006c10.195,0,24.087,1.517,33.984,2.795v2.664c-9.791-1.266-23.959-2.776-33.984-2.776a43.725,43.725,0,0,0-9.052.922l-1.7.359v-2.768Z" fill="#9dd0dc"/>
            </g>
            <g id="Group_750" data-name="Group 750">
              <path id="Path_394" data-name="Path 394" d="M590.534,2895.462a47.66,47.66,0,0,1,9.853-1.006c10.195,0,24.087,1.517,33.984,2.795v2.664c-9.791-1.266-23.959-2.776-33.984-2.776a43.725,43.725,0,0,0-9.052.922l-1.7.359v-2.768Z" fill="#9dd0dc"/>
            </g>
            <g id="Group_751" data-name="Group 751">
              <path id="Path_395" data-name="Path 395" d="M590.534,2904.076a47.66,47.66,0,0,1,9.853-1c10.195,0,24.087,1.516,33.984,2.794v2.664c-9.791-1.266-23.959-2.776-33.984-2.776a43.725,43.725,0,0,0-9.052.922l-1.7.36v-2.769Z" fill="#9dd0dc"/>
            </g>
          </g>
        </g>
      </g>
      <g id="Group_758" data-name="Group 758">
        <g id="Group_755" data-name="Group 755">
          <rect id="Rectangle_337" data-name="Rectangle 337" width="8.33" height="63.533" transform="matrix(0.966, 0.259, -0.259, 0.966, 343.345, 2837.194)" fill="#e63f33"/>
          <path id="Path_396" data-name="Path 396" d="M332.568,2900.1l-3.125-.87,16.251-61.419,3.125.87Z" fill="#e63f33"/>
          <path id="Path_397" data-name="Path 397" d="M343.345,2837.195l7.467-11.748.579,13.908Z" fill="#fff"/>
          <path id="Path_398" data-name="Path 398" d="M351.027,2830.625l-.216-5.179-2.78,4.375Z" fill="#2b444d"/>
          <rect id="Rectangle_338" data-name="Rectangle 338" width="8.33" height="2.581" transform="translate(326.872 2898.555) rotate(15.027)" fill="#204d83"/>
          <path id="Rectangle_339" data-name="Rectangle 339" d="M0,0H8.33a0,0,0,0,1,0,0V4.45A3.342,3.342,0,0,1,4.988,7.792H3.341A3.341,3.341,0,0,1,0,4.451V0A0,0,0,0,1,0,0Z" transform="translate(326.202 2901.048) rotate(15.027)" fill="#99b3d7"/>
        </g>
        <g id="Group_756" data-name="Group 756">
          <rect id="Rectangle_340" data-name="Rectangle 340" width="8.33" height="63.533" transform="matrix(0.989, 0.145, -0.145, 0.989, 332.812, 2824.321)" fill="#008394"/>
          <path id="Path_399" data-name="Path 399" d="M329.412,2888.052l-3.2-.5,9.01-62.89,3.2.5Z" fill="#13707a"/>
          <path id="Path_400" data-name="Path 400" d="M332.812,2824.321l6.052-12.536,2.19,13.747Z" fill="#fff"/>
          <path id="Path_401" data-name="Path 401" d="M339.679,2816.9l-.815-5.119-2.254,4.668Z" fill="#2b444d"/>
          <rect id="Rectangle_341" data-name="Rectangle 341" width="8.33" height="2.581" transform="translate(323.575 2887.179) rotate(8.359)" fill="#204d83"/>
          <path id="Rectangle_342" data-name="Rectangle 342" d="M0,0H8.33a0,0,0,0,1,0,0V4.45A3.342,3.342,0,0,1,4.988,7.792H3.341A3.341,3.341,0,0,1,0,4.451V0A0,0,0,0,1,0,0Z" transform="translate(323.2 2889.733) rotate(8.359)" fill="#99b3d7"/>
        </g>
        <g id="Group_757" data-name="Group 757">
          <rect id="Rectangle_343" data-name="Rectangle 343" width="8.33" height="63.533" transform="translate(327.036 2896.366) rotate(173.295)" fill="#009794"/>
          <path id="Path_402" data-name="Path 402" d="M313.755,2833.942l3.225-.349,7.646,63.071-3.225.349Z" fill="#34b8b6"/>
          <path id="Path_403" data-name="Path 403" d="M327.036,2896.366l-2.586,13.677-5.687-12.7Z" fill="#fff"/>
          <path id="Path_404" data-name="Path 404" d="M322.332,2905.313l2.118,4.731.963-5.093Z" fill="#2b444d"/>
          <rect id="Rectangle_344" data-name="Rectangle 344" width="8.33" height="2.581" transform="translate(319.618 2833.268) rotate(173.294)" fill="#f9aa00"/>
          <path id="Rectangle_345" data-name="Rectangle 345" d="M0,0H8.33a0,0,0,0,1,0,0V4.45A3.342,3.342,0,0,1,4.988,7.792H3.341A3.341,3.341,0,0,1,0,4.451V0A0,0,0,0,1,0,0Z" transform="translate(319.317 2830.704) rotate(173.294)" fill="#e6e6e6"/>
        </g>
        <path id="Path_405" data-name="Path 405" d="M350.22,2929.522H309.008l-4.024-74.486a1.413,1.413,0,0,1,1.415-1.485h46.43a1.412,1.412,0,0,1,1.415,1.485Z" fill="url(#linear-gradient-5)"/>
        <path id="Path_406" data-name="Path 406" d="M352.829,2853.551H351.31a118.684,118.684,0,0,1-3.3,17.654,63.594,63.594,0,0,1-6.589,15.773,44.99,44.99,0,0,1-11.841,12.995,41.771,41.771,0,0,1-18.141,7.53c-1.2.189-2.4.336-3.6.456l1.165,21.563H350.22l4.024-74.486A1.412,1.412,0,0,0,352.829,2853.551Z" opacity="0.07"/>
      </g>
      <g id="Group_761" data-name="Group 761">
        <path id="Rectangle_346" data-name="Rectangle 346" d="M7.912,0H106.9a0,0,0,0,1,0,0V19.724a0,0,0,0,1,0,0H7.912A7.912,7.912,0,0,1,0,11.812v-3.9A7.912,7.912,0,0,1,7.912,0Z" transform="translate(260.088 2910.122)" fill="url(#linear-gradient-6)"/>
        <g id="Group_759" data-name="Group 759">
          <path id="Path_407" data-name="Path 407" d="M307.756,2920.62v-1.273a9.225,9.225,0,0,1,9.226-9.225H304.088a9.226,9.226,0,0,0-9.226,9.225v1.273a9.226,9.226,0,0,0,9.226,9.225h12.894A9.225,9.225,0,0,1,307.756,2920.62Z" fill="#13707a"/>
          <rect id="Rectangle_347" data-name="Rectangle 347" width="12.894" height="19.724" transform="translate(401.765 2910.122)" fill="#008394"/>
        </g>
        <path id="Path_408" data-name="Path 408" d="M262.6,2926.939a9.2,9.2,0,0,0,6.719,2.906h97.677v-2.906Z" opacity="0.07"/>
        <g id="Group_760" data-name="Group 760">
          <path id="Path_409" data-name="Path 409" d="M326.356,2927.986c-3.619,0-6.564-3.59-6.564-8s2.945-8,6.564-8h90.575v16.005Z" fill="#fff"/>
          <path id="Path_410" data-name="Path 410" d="M417.99,2926.126H326.91c-2.925,0-5.4-2.615-5.488-5.957-.09-3.471,2.355-6.328,5.374-6.328H417.99a1.755,1.755,0,0,0,1.627-1.86h0a1.754,1.754,0,0,0-1.627-1.859H326.8c-4.767,0-8.631,4.415-8.631,9.861h0c0,5.446,3.864,9.862,8.631,9.862H417.99a1.755,1.755,0,0,0,1.627-1.86h0A1.755,1.755,0,0,0,417.99,2926.126Z" fill="#13707a"/>
          <path id="Path_411" data-name="Path 411" d="M326.013,2916.81l14.1-.171,6.831-.083,7.624-.075,16.57-.15,8.418-.094c2.776-.042,5.509-.053,8.153-.071,2.644,0,5.2.013,7.624.05l3.531.049,3.3.066c2.116.042,4.055.1,5.773.147l2.408.078,2.044.081c1.234.052,2.2.085,2.864.121l1.014.052v.136l-1.014.052c-.661.036-1.63.068-2.864.12l-2.044.082-2.408.078c-1.718.049-3.657.1-5.773.147l-3.3.066-3.531.048c-2.424.038-4.98.05-7.624.051-2.644-.018-5.377-.03-8.153-.072l-8.418-.093-16.57-.151-7.624-.074-6.831-.083-14.1-.171Z" fill="#dcdcdc"/>
          <path id="Path_412" data-name="Path 412" d="M416.27,2920.267l-14.1.171-6.831.083-7.624.074-16.571.151-8.417.094c-2.776.042-5.509.053-8.153.071-2.644,0-5.2-.013-7.624-.051l-3.531-.048-3.3-.066c-2.116-.042-4.055-.1-5.773-.147l-2.408-.078-2.044-.081c-1.234-.052-2.2-.085-2.864-.121l-1.014-.052v-.136l1.014-.052c.661-.036,1.63-.068,2.864-.121l2.044-.081,2.408-.078c1.718-.049,3.657-.1,5.773-.147l3.3-.066,3.531-.048c2.424-.038,4.98-.05,7.624-.051,2.644.018,5.377.029,8.153.072l8.417.093,16.571.151,7.624.074,6.831.083,14.1.171Z" fill="#dcdcdc"/>
          <path id="Path_413" data-name="Path 413" d="M416.27,2923.784l-10.623.175-5.145.079-5.743.074-12.482.151-6.34.093c-2.092.038-4.15.066-6.142.072s-3.917-.014-5.743-.051l-2.659-.049-2.486-.065c-1.593-.042-3.054-.1-4.349-.148s-2.423-.1-3.352-.154-1.66-.092-2.158-.126l-.764-.051v-.137l.764-.051c.5-.034,1.228-.077,2.158-.126s2.058-.1,3.352-.154,2.756-.106,4.349-.148l2.486-.065,2.659-.049c1.826-.037,3.752-.049,5.743-.051s4.05.034,6.142.072l6.34.094,12.482.15,5.743.074,5.145.079,10.623.175Z" fill="#dcdcdc"/>
        </g>
      </g>
      <g id="Group_765" data-name="Group 765">
        <g id="Group_763" data-name="Group 763">
          <g id="Group_762" data-name="Group 762">
            <rect id="Rectangle_348" data-name="Rectangle 348" width="96.843" height="61.842" transform="translate(475.659 2747.327)" opacity="0.13"/>
            <rect id="Rectangle_349" data-name="Rectangle 349" width="106.387" height="77.588" transform="translate(479.374 2726.938)" fill="#fff"/>
            <rect id="Rectangle_350" data-name="Rectangle 350" width="106.387" height="8.444" transform="translate(479.374 2726.938)" fill="url(#linear-gradient-7)"/>
            <rect id="Rectangle_351" data-name="Rectangle 351" width="4.466" height="4.392" transform="translate(482.956 2728.964)" fill="#fff"/>
          </g>
        </g>
        <g id="Group_764" data-name="Group 764">
          <rect id="Rectangle_352" data-name="Rectangle 352" width="4.279" height="14.56" transform="translate(506.6 2773.201)" fill="#c4e1e9"/>
          <rect id="Rectangle_353" data-name="Rectangle 353" width="4.279" height="27.01" transform="translate(514.73 2760.75)" fill="#c4e1e9"/>
          <rect id="Rectangle_354" data-name="Rectangle 354" width="4.279" height="36.283" transform="translate(522.861 2751.477)" fill="#c4e1e9"/>
          <rect id="Rectangle_355" data-name="Rectangle 355" width="4.279" height="32.282" transform="translate(530.991 2755.478)" fill="#c4e1e9"/>
          <rect id="Rectangle_356" data-name="Rectangle 356" width="4.279" height="43.362" transform="translate(539.121 2744.398)" fill="#c4e1e9"/>
          <rect id="Rectangle_357" data-name="Rectangle 357" width="4.279" height="8.036" transform="translate(506.6 2779.725)" fill="url(#linear-gradient-8)"/>
          <rect id="Rectangle_358" data-name="Rectangle 358" width="3.015" height="45.388" transform="translate(548.137 2792.306) rotate(90)" fill="#9dd0dc"/>
          <rect id="Rectangle_359" data-name="Rectangle 359" width="24.7" height="2.332" transform="translate(553.711 2744.398)" fill="#c4e1e9"/>
          <rect id="Rectangle_360" data-name="Rectangle 360" width="24.7" height="2.332" transform="translate(553.711 2749.414)" fill="#c4e1e9"/>
          <rect id="Rectangle_361" data-name="Rectangle 361" width="24.7" height="2.332" transform="translate(553.711 2754.429)" fill="#c4e1e9"/>
          <rect id="Rectangle_362" data-name="Rectangle 362" width="4.279" height="18.328" transform="translate(514.73 2769.432)" fill="url(#linear-gradient-9)"/>
          <rect id="Rectangle_363" data-name="Rectangle 363" width="4.279" height="28.042" transform="translate(522.861 2759.719)" fill="url(#linear-gradient-10)"/>
          <rect id="Rectangle_364" data-name="Rectangle 364" width="4.279" height="18.089" transform="translate(530.991 2769.671)" fill="url(#linear-gradient-11)"/>
          <rect id="Rectangle_365" data-name="Rectangle 365" width="4.279" height="35.158" transform="translate(539.121 2752.602)" fill="url(#linear-gradient-12)"/>
        </g>
      </g>
      <g id="Group_772" data-name="Group 772">
        <g id="Group_771" data-name="Group 771" clip-path="url(#clip-path)">
          <g id="Group_770" data-name="Group 770">
            <path id="Path_414" data-name="Path 414" d="M398.326,2767.027s2.531-4.408,12.654-1.091l2.357,3.665-15.535,1.92Z" fill="#fff"/>
            <path id="Path_415" data-name="Path 415" d="M398.326,2767.946s2.531-4.408,12.654-1.091l2.357,3.665-15.535,1.92Z" fill="#e9e9e9"/>
            <path id="Path_416" data-name="Path 416" d="M501.767,2757.271s-7.94,5.43-9.831,6.685c-1.6,1.06-4.314,5.443-5.18,8.669a53.628,53.628,0,0,1-7.843,4.609c1.134,2.552,2.344,3.782,3.529,6.311.131.279.268.554.4.831,3.14-2.369,5.806-4.477,7.389-5.863l.092.012c4.338.477,6.626-4.311,6.976-3.993.7.636,2.048-.757,2.048-.757a41.354,41.354,0,0,0,.056-4.628c-.149-1.358-2.1-4.186-2.1-4.186s3.575-3.863,4.7-5.106S501.767,2757.271,501.767,2757.271Z" fill="url(#linear-gradient-13)"/>
            <path id="Path_417" data-name="Path 417" d="M484.862,2773.6c-1.2.512-4.061,2.319-5.729,3.071,1.034,2.327,2.023,4.673,3.1,6.978.119.254,1.478.113,1.6.366,2.028-1.531,4.059-2.73,5.456-3.872C487.812,2778.312,486.312,2775.471,484.862,2773.6Z" fill="#f0f0f0"/>
            <g id="Group_768" data-name="Group 768">
              <path id="Path_418" data-name="Path 418" d="M392.966,2848.58c-13.575,3.382-6.036,53.176-16.4,92.168-2.091,7.869,12.295,14.932,18.759,5,9.862-15.151,16.088-40.351,16.088-40.351-1.176-.938,5.3,24.83,6.161,41.792.434,8.576,22.225,2.611,22-4.287-1.711-51.823-7.24-90.4-7.24-90.4S404.449,2845.72,392.966,2848.58Z" fill="#2b444d"/>
              <path id="Path_419" data-name="Path 419" d="M482.035,2774.739c-7.925,3.551-27.752,11.647-31.746,11.348-5.524-.414-21.322-10.483-26.689-13.725-5.053-3.069-9.694,1.1-11.555,6.7-1.834,5.516,1.624,10.033,6.507,12.089,5.727,2.412,1.874,5.349,7.759,7.349,5.081,1.727,18.878,5,24.209,3.931,13-2.607,29.511-14.8,36.819-20.429C485.967,2779.716,483.485,2776.972,482.035,2774.739Z" fill="url(#linear-gradient-14)"/>
              <path id="Path_420" data-name="Path 420" d="M422.717,2782.519c-.171-.4-1.882-7.632-1.582-11.108-4.048-.694-7.537,2.977-9.09,7.647-1.834,5.516,1.624,10.033,6.507,12.089,5.727,2.412,1.874,5.349,7.759,7.349a101.512,101.512,0,0,0,12.861,3.171C438.409,2801.131,428.926,2796.845,422.717,2782.519Z" opacity="0.07"/>
              <path id="Path_421" data-name="Path 421" d="M382.99,2792.1c0,12.163,4.585,36.561,6.083,45.969.9,5.665-3.994,13.217-5.626,27.961a46.627,46.627,0,0,0,17.3,3.607c21.868.608,34.248-2.392,34.248-2.392-1.859-12.967-4.02-36.2-4.7-49.1-.067-1.277,5.688-5.993,2.149-16.019-1.563-4.428-5.34-7.815-6.731-13.7-.268-1.134,1.817-13.376-.848-14.955-3.453-2.047-6.3-5.367-16.09-4.82C390.994,2769.639,382.99,2781.661,382.99,2792.1Z" fill="url(#linear-gradient-15)"/>
              <path id="Path_422" data-name="Path 422" d="M432.289,2845.425c-.774-7.034-1.123-10.224-1.563-16.411-2.3-.441-6.814-.846-9.419-1.888-.362-.145-12.026-13.962-20.317-32.625-.665-1.5-15.666,3.723-15.629,4.3.586,9.182,18.781,41.885,23.443,45.128C413.3,2847.053,426.651,2845.981,432.289,2845.425Z" opacity="0.07"/>
              <path id="Path_423" data-name="Path 423" d="M416.293,2774.325c-1.038-3.055-2.677-5.112-2.694-5.509a14.229,14.229,0,0,0-4.825-.169c-5.4.3-8.5.839-12.194,2.7a21.26,21.26,0,0,0,5.848,5.978c4.931,3.186,10.123,5.455,13,3.622C417.847,2779.41,417.09,2776.671,416.293,2774.325Z" fill="#d6d6d6"/>
              <path id="Path_424" data-name="Path 424" d="M414.559,2780.118c.131-5.106.285-7.507-2.008-11.477-1.988-.511-10.823-.319-14.34,2.111C402.515,2772.656,410.108,2775.929,414.559,2780.118Z" fill="url(#linear-gradient-16)"/>
              <path id="Path_425" data-name="Path 425" d="M399.921,2770.583a33.239,33.239,0,0,0,7.617,2.448,18.17,18.17,0,0,0,1.952.112c1.677.049,2.215.061,2.268-1.792.105-3.712-1.322-7.885-2.443-11.383-1.438-4.485-8.026-5.136-8.748.2-.171,1.266-.859,10.329-.646,10.414C401.893,2771.372,399.878,2770.566,399.921,2770.583Z" fill="url(#linear-gradient-17)"/>
              <path id="Path_426" data-name="Path 426" d="M403.4,2764.178s-16.642-16.124-13.6-22.772c2.378-5.19,21.637-7.1,21.637-7.1s15.717,22.612,5.709,29.616C409.18,2769.5,403.4,2764.178,403.4,2764.178Z" fill="url(#linear-gradient-13)"/>
              <path id="Path_427" data-name="Path 427" d="M411.978,2757.342l7.292-2.983S418.11,2761.816,411.978,2757.342Z" fill="#de5b4d"/>
              <path id="Path_428" data-name="Path 428" d="M391.514,2758.023c-5.89-4.94-7.03-14.63-2.243-21.758,4.034-6.006,12.8-7.471,19.975-5.954,6.937,1.467,4.782,7.667,4.782,7.667s-10.694,2.18-12.255,6.365c-.914,2.452-.768,7.036-.768,7.036s-3.416-1.633-3.707,2.186c-.221,2.914,2.872,6.419,4.1,5.542a21.23,21.23,0,0,0-1.244,5.869S397.423,2762.978,391.514,2758.023Z" fill="#422725"/>
              <g id="Group_767" data-name="Group 767">
                <g id="Group_766" data-name="Group 766">
                  <path id="Path_429" data-name="Path 429" d="M407.741,2819.518l-.017.034C407.763,2819.532,407.741,2819.518,407.741,2819.518Z" fill="#ffb08c"/>
                </g>
              </g>
              <path id="Path_430" data-name="Path 430" d="M386.97,2741.934s-5.263-1.085-5.714,5.2,7.53,17.243,12.881,10.42C397.417,2753.374,386.97,2741.934,386.97,2741.934Z" fill="#422725"/>
            </g>
            <path id="Path_431" data-name="Path 431" d="M482.046,2839.771c-.334-.1-6.6-.33-7.445-.458a9.841,9.841,0,0,1-4.1-2.12.83.83,0,0,1,.206-1.385c.828-.292,2.816-.043,4.9-.4a1.835,1.835,0,0,0,1.75-2.047c.052-.15-9.6-.161-10.1-.192-.48-.03-7.665,2.27-8.44,2.519-3.382-.306-7.243-.908-11.117-1.618-.264.715-.5,1.438-.7,2.173-.014.051-.077.319-.125.517-.017.086-.032.159-.039.2q-.178.965-.3,1.94a32.214,32.214,0,0,0-.2,3.939c3.508-.2,12.166-.212,12.166-.212s6.154,2.678,7.146,2.9a40.281,40.281,0,0,0,7.324.495,2.479,2.479,0,0,0,2.5-1.535,2.635,2.635,0,0,0,1.7-1.4,14.873,14.873,0,0,0,1.665-.544,4.575,4.575,0,0,0,.793-.765l3.177-.574C483.253,2840.844,482.379,2839.868,482.046,2839.771Z" fill="url(#linear-gradient-13)"/>
            <path id="Path_432" data-name="Path 432" d="M455.543,2835.161c-2.934-.391-6.459-.931-9.61-1.533-.287.791-.542,1.592-.755,2.406-.015.056-.083.353-.134.573-.019.095-.034.176-.042.221-.128.714-.232,1.431-.318,2.151a35.845,35.845,0,0,0-.19,4.372c3-.143,7.111-.343,10.509-.534A31.463,31.463,0,0,1,455.543,2835.161Z" fill="#f0f0f0"/>
            <path id="Path_433" data-name="Path 433" d="M452.411,2834.289c-11.9-1.827-28.451-5.7-31.885-5.991.042.019-8.2-6.642-18.364-32.039-1.051-6.66-7.557-14.161-13.858-10.457-6.523,3.834-5.4,12.183-3.36,17.644,2.608,6.964,21.25,37.025,25.636,39.024,5.254,2.4,31.075,1.367,41.214,1.415A71.961,71.961,0,0,1,452.411,2834.289Z" fill="url(#linear-gradient-20)"/>
            <path id="Path_434" data-name="Path 434" d="M395.969,2771.7l2.357-4.669s-.774,1.839,4.32,5.629c.847.63,6.153,2.88,6.153,2.88l-.873,8.266S397.06,2778.111,395.969,2771.7Z" fill="#fff"/>
            <path id="Path_435" data-name="Path 435" d="M408.8,2775.536s5.018,2.313,5.978,5.018a16.94,16.94,0,0,0-6.938-3.1Z" fill="#fff"/>
            <path id="Path_436" data-name="Path 436" d="M414.869,2774.7l4.664,3.45s-2.508-7.32-8.2-11.607a19.263,19.263,0,0,1,2.157,6.913c.23,1.539.5,5.872,1.29,7.225C414.777,2780.685,414.66,2776.821,414.869,2774.7Z" fill="#fff"/>
            <g id="Group_769" data-name="Group 769">
              <path id="Path_437" data-name="Path 437" d="M413.049,2744.345a1.98,1.98,0,0,1,.939-1.15c.85-.578,4.211-1.942,4.83-1.806s1.494,2.172,1.362,3.266-1.281,3-2.013,3.014C416.9,2747.7,414.7,2747.75,413.049,2744.345Z" fill="#d2d2d2" opacity="0.5"/>
              <path id="Path_438" data-name="Path 438" d="M403.49,2748.479a6.8,6.8,0,0,0,1.118,2.46c.818,1.037,1.967,1.881,3.058,1.728s4.449-1.8,4.33-4.272-.134-3.991-2.458-3.493S403.483,2747.766,403.49,2748.479Z" fill="#d2d2d2" opacity="0.5"/>
              <path id="Path_439" data-name="Path 439" d="M420.175,2743.28a5.151,5.151,0,0,0-.262-.893,1.256,1.256,0,0,0-.055-.194c-.119-.336.036-.481.036-.481l.058-.025-.222-.772a.13.13,0,0,0-.109-.006,9.207,9.207,0,0,0-2.791.563h.019q-.3.1-.631.234c-.109.044-.222.09-.337.139a7.436,7.436,0,0,0-2.222,1.295c-.071.063-.159.145-.253.242a6.809,6.809,0,0,1-1.289.947,6.647,6.647,0,0,1-1.58.227c-.132,0-.251,0-.349.008a9.412,9.412,0,0,0-2.971.759c-.15.058-.3.114-.438.171q-.487.2-.9.39l.031-.025a16.568,16.568,0,0,0-3.615,2.162l.021.007-.011.013-.01-.02-2.206,3.073.7.19,1.934-2.281a.2.2,0,0,0,.037-.009l.094-.039a.532.532,0,0,1,.513.37,1.373,1.373,0,0,0,.084.162,4.861,4.861,0,0,0,.581,1.089c1.4,2.033,2.8,3.143,5.053,2a7.612,7.612,0,0,0,1.005-.629,5.129,5.129,0,0,0,1.994-5.611l.015.018-.037-.094c-.028-.1-.059-.193-.094-.29a.764.764,0,0,1,.412-.911l0,.006a.221.221,0,0,1,.027-.017.168.168,0,0,1,.027-.006l0-.006a.751.751,0,0,1,1,.414c.017.036.033.072.05.107s.043.1.064.154l0-.035a3.857,3.857,0,0,0,4.563,2.2,4.709,4.709,0,0,0,.839-.324h0C420.54,2746.729,420.581,2745.239,420.175,2743.28Zm-10.408,8.113a6.755,6.755,0,0,1-.9.555c-1.86.93-2.964.054-4.225-1.783a2.283,2.283,0,0,1-.555-1.981c.24-.725,1.162-1.379,2.928-2.1.135-.056.273-.111.415-.166,3.1-1.208,3.591-.694,3.89.042A4.446,4.446,0,0,1,409.767,2751.393Zm8.942-4.366h0a4.3,4.3,0,0,1-.752.283c-.466.132-2.946.657-4.156-2.43-.28-.714-.291-1.4,2.3-2.526.109-.048.215-.093.319-.135,1.3-.533,2.076-.625,2.552-.315a2.188,2.188,0,0,1,.741,1.476C420.083,2745.176,420.045,2746.36,418.709,2747.027Z" fill="#13707a"/>
              <path id="Path_440" data-name="Path 440" d="M419.73,2740.915h0Z" fill="#00806a"/>
            </g>
          </g>
        </g>
      </g>
      <g id="Group_776" data-name="Group 776">
        <path id="Path_441" data-name="Path 441" d="M571.26,2773.926H557.12a2.33,2.33,0,0,0-2.33,2.33v42.279a2.33,2.33,0,0,0,2.33,2.33h14.14Z" opacity="0.13"/>
        <path id="Rectangle_367" data-name="Rectangle 367" d="M11.925,0h44.4A11.924,11.924,0,0,1,68.246,11.924v23.09A11.925,11.925,0,0,1,56.321,46.939h-44.4A11.925,11.925,0,0,1,0,35.014V11.925A11.925,11.925,0,0,1,11.925,0Z" transform="translate(559.209 2770.244)" fill="url(#linear-gradient-21)"/>
        <rect id="Rectangle_368" data-name="Rectangle 368" width="68.246" height="2.54" transform="translate(559.209 2809.694)" fill="#e63f33"/>
        <g id="Group_774" data-name="Group 774">
          <g id="Group_773" data-name="Group 773">
            <path id="Path_442" data-name="Path 442" d="M593.332,2802.8a12.765,12.765,0,1,1,12.765-12.765A12.78,12.78,0,0,1,593.332,2802.8Zm0-23.446a10.681,10.681,0,1,0,10.681,10.681A10.692,10.692,0,0,0,593.332,2779.353Z" fill="#fff"/>
          </g>
          <path id="Path_443" data-name="Path 443" d="M589.477,2784.928v10.211l10.316-5.105Z" fill="#fff"/>
        </g>
        <g id="Group_775" data-name="Group 775">
          <circle id="Ellipse_75" data-name="Ellipse 75" cx="2.854" cy="2.854" r="2.854" transform="matrix(0.23, -0.973, 0.973, 0.23, 612.275, 2813.085)" fill="#fff"/>
          <path id="Path_444" data-name="Path 444" d="M615.708,2814.738a3.775,3.775,0,1,1,3.775-3.775A3.779,3.779,0,0,1,615.708,2814.738Zm0-5.708a1.933,1.933,0,1,0,1.934,1.933A1.935,1.935,0,0,0,615.708,2809.03Z" fill="#e62817"/>
        </g>
      </g>
      <g id="Group_778" data-name="Group 778">
        <path id="Path_445" data-name="Path 445" d="M486.721,2738.435H437.3l-8.544,5.858.157-13.61v-25.748c0-4.06,3.555-7.351,7.942-7.351h49.869c4.386,0,7.942,3.291,7.942,7.351v26.148C494.663,2735.143,491.107,2738.435,486.721,2738.435Z" fill="url(#linear-gradient-22)"/>
        <g id="Group_777" data-name="Group 777">
          <rect id="Rectangle_369" data-name="Rectangle 369" width="46.333" height="3.163" transform="translate(438.62 2708.502)" fill="#fff"/>
          <rect id="Rectangle_370" data-name="Rectangle 370" width="46.333" height="3.163" transform="translate(438.62 2717.089)" fill="#fff"/>
          <rect id="Rectangle_371" data-name="Rectangle 371" width="36.305" height="3.163" transform="translate(438.62 2725.675)" fill="#fff"/>
        </g>
      </g>
      <g id="Group_779" data-name="Group 779" opacity="0.8">
        <path id="Path_446" data-name="Path 446" d="M508.886,2710.084a3.714,3.714,0,1,1-3.715-3.714A3.715,3.715,0,0,1,508.886,2710.084Z" fill="#fff" opacity="0.4"/>
        <path id="Path_447" data-name="Path 447" d="M521.642,2710.084a3.715,3.715,0,1,1-3.714-3.714A3.715,3.715,0,0,1,521.642,2710.084Z" fill="#fff" opacity="0.7"/>
        <path id="Path_448" data-name="Path 448" d="M534.4,2710.084a3.715,3.715,0,1,1-3.714-3.714A3.715,3.715,0,0,1,534.4,2710.084Z" fill="#fff"/>
      </g>
    </g>
  </g>
</svg>
